<?xml version="1.0" encoding="UTF-8"?>
<svg id="Ebene_1" xmlns="http://www.w3.org/2000/svg" version="1.1" viewBox="0 0 178.79 133.21">
  <!-- Generator: Adobe Illustrator 30.6.0, SVG Export Plug-In . SVG Version: 2.1.4 Build 109)  -->
  <defs>
    <style>
      .st0 {
        fill: #ffe783;
        stroke: #010101;
        stroke-width: 2px;
      }
    </style>
  </defs>
  <path id="path4577" class="st0" d="M171.09,11.69c-.68-.83-5.94-.91-6.5-1-2.4-.37-4.6-1.06-6.5-1.5-2.67-.62-3.74-1.7-5.5-2.5-1.56-.71-3.45,1.73-5,2.5-2.46,1.23-3.04,2.13-5,3.5-2.37,1.66-2.64,1.06-5,2-2.79,1.12-5.24-1.5-7-2-3.43-.98-4.02.62-6.5,1-3.18.49-1.67,2.78-3,5-1.2,2-1.44,4.32-2,6-.58,1.73-1.3,4.33-1.5,5-.55,1.82-1-3.67-1.5-5.5-.38-1.38-5.34,3.88-5.5,4-2.05,1.49-2.77,1.26-5.5,2.5-1.72.78-5.74,1.15-7.5,1.5-2.14.43-2.52-1.26-4-2-1.94-.97-1.67-4-2.5-6-.68-1.63-5.88,0-6.5,0-1.12,0-6.35,1.36-7,1.5-2.51.54-4.51-1.39-6.5-2-3.47-1.07,2.84-3.31,3-3.5,2.09-2.43-1.58-3.96-2-5-1.14-2.85,0-1.17,0-4,0-.27,1.32-4.41,1.5-5,.49-1.62-3.79-2.53-4.5-3-2.7-1.8-4.88-.7-7-1-2.01-.29-3.33,2.33-5,3.5-.87.61-2.24-4.04-2.5-4.5-.39-.7-3.86.77-5,1-3.77.75-2.85.71-6,1.5-3.2.8-1.16,2.91-2,5-1.37,3.42-4.63-.42-5.5-.5-1.17-.11-1.92-1.2-4-2.5-1.56-.97-5.53,1.7-6.5,2-2.21.68-4.15,1.59-6.5,2.5-2.51.96-3.97,2.32-6,3.5-3.24,1.89-2.42,1.85-3.34,3.93-.52,1.17-1.6,6.3-1.49,6.96.3,1.82,1.73,5.55,1.61,7.62-.17,2.76,1.04,5.1.72,7.5-.39,2.93,1.24,3.72,2,6,.7,2.09-.26,2.83-.5,5.5-.22,2.4-1.28,3.83-2,6-1.17,3.52.36,3.96.5,5.5.1,1.15,2.69,3.46,3.5,4.5,1.1,1.41,3.07-.92,5-1.5,3.4-1.02,1.7-2.19,3.5-4.5,1.03-1.32.33-3.33.5-5,.18-1.8,4.54-1.82,5-2,3.13-1.25,1.68,1.96,3,3.5.96,1.11,1.96,2.74,2.5,3.5,1.18,1.65,4,.67,6,1,1.57.26.39,5.16.78,6.23.65,1.82-.18,4.57-.78,5.77-1.36,2.72-3.13.8-4.88,2.16-1.61,1.25-3.94,1.51-5.69,2.31-2.01.91-3.88,2.49-6.43,3.03-1.9.41-5.27-1.35-6.96.81-1.3,1.66.76,5.34,1.43,7.34.42,1.27,2.13,2.74,2.53,5.35.23,1.52-.32,1.13-1,3.5-.35,1.22-3.99,3.59-5,4.5-.57.51-.51.83-2.12,3.28-1.13,1.72-4.77-.62-6.77-1.12-2.29-.57-3.44,5.52-3.61,6.19-.58,2.32,1.53,7.03,1.53,8.53,0,1.66,4.14,5.04,5.12,5.84,2.36,1.93,3.69,2.97,4.34,4.28,1.47,2.93,3.45.63,5.5,1,2.05.37,5.11.93,5.5,1,1.87.34,4.08-3.71,5.5-5,1.47-1.34,2.74-2.74,4-4,1.88-1.88,3.59-2.94,5.5-4.5,2.22-1.82,3.38-2.15,5.5-3.5,2.96-1.89,4.01-.57,7-1,2.08-.3,4.86.81,6,1,3.55.59,3.73-2.04,5.5-3,.89-.49,3.25-2.53,4.5-3.5,2.23-1.73,2.96-2.67,5-4.5,2.28-2.05,2.8-2.8,4-4,1.93-1.93,3.22-1.61,5-2.5,1.93-.97,3.41-1.55,5.5-2.5.22-.1,4.61-1.38,5-1.5,1.78-.54,1.67-3.33,2.5-5,.6-1.2,5.66-1.21,7-1.5,2.62-.56,4.44-1.71,6.5-2.5,1.32-.51,4.68-1.17,6-1.5,3.1-.78,2.1-1.64,4.5-3.5,2.19-1.71,2.74-1.83,4.5-3,.8-.53,6.92,0,7.5,0,1.46,0,4.43-3.99,5-4.5.84-.76,4.48-2.85,5.5-3.5,2.33-1.48,0-3.38,0-5,0-2.09-2-3.67-3-5.5-1.09-1.99,4.33-1.33,6.5-2,1.58-.49,4.46,1.11,6,1.5,3.43.86,2.09,1.16,4.5,2.5,1.9,1.06.33,4.33.5,6.5.07.96,4.3,1.07,6,1.5.86.22-1.55,4.26-2,5.5-.8,2.21,4.32,3.53,5.5,4.5,2.57,2.11,3.96-1.19,5-1.5,1.69-.51,2.41-4.82,3-6,1.22-2.43,1.34-4.68,2-7,.52-1.84,1.09-4.34,1.5-6,.59-2.34,0-3.38,0-6.5v-7.5c0-1.79,1.35-4.04,2-6,.82-2.47-1.07-5.33-1.5-7.5-.26-1.3-2.31-4.23-3-5.5-1.07-1.96,1.65-3.31,2.5-5,.06-2.98-2.57-4.83-4.5-8Z"/>
</svg>