<?xml version="1.0" encoding="UTF-8"?>
<svg id="Ebene_1" xmlns="http://www.w3.org/2000/svg" version="1.1" viewBox="0 0 74.63 56.93">
  <!-- Generator: Adobe Illustrator 30.6.0, SVG Export Plug-In . SVG Version: 2.1.4 Build 109)  -->
  <defs>
    <style>
      .st0 {
        fill: #e0bbda;
        stroke: #e0bbda;
        stroke-miterlimit: 3.86;
        stroke-width: .71px;
      }
    </style>
  </defs>
  <path id="path2458" class="st0" d="M47.01,6.7l-1.12.72-6.31-2.81-2.96-3.79-1.25,5.95-3.82,3.65,3.47,7.22.73,3.07-4.61,3.79-2.73-2.89-3.14,1.67-1.98-1.38-3.64,4.27-3.39-2.68-6.2,5.88-5.26,1.38-2.37,5.22,5.82,3.32-.09,2.89-3.44,4.76L.63,56.37l4.14-1.2,1.25-2.66,8.58.62,2.35,1.9,2.43-2.56.93-2.23,4.77.5,3.64-.79.73,2.93,7.21.65,3.29-1.94,6.09-3.31,2.82-2.32-.53-3.53,8.01-6.74,3.46-1.31,1.73.21,5.74-3.07,3-2.31,4.01-5.92-.06-3.67-2.93.08.35-2.2-.43-.39-5.88,4.92-3.49-4.54-2.41-4.45,1.37-2.25,1.84-1.58.3-2.95-6.88-3.42-9.06,3.83h0Z"/>
</svg>