<?xml version="1.0" encoding="UTF-8"?>
<svg id="Ebene_1" xmlns="http://www.w3.org/2000/svg" version="1.1" viewBox="0 0 77.37 112.47">
  <!-- Generator: Adobe Illustrator 30.6.0, SVG Export Plug-In . SVG Version: 2.1.4 Build 109)  -->
  <defs>
    <style>
      .st0 {
        fill: #cce3bf;
      }
    </style>
  </defs>
  <path id="path2474" class="st0" d="M25.97.34l8.74,8.85,7.28,3.28,2.67-.94,2.04.29,7.02.21,9.25,1.71.07,2.37.73,9.44.42,5.26-2.39,1.7-8.54,6.85,3.76,2.59,4.97,1.15,3.42-3.47,4.56,1.16,3.06.97,3.54,9.21-2.12,11.54-.76,3.2,3.68,6.52-.72,3.22-4.26,2.75-2.91,4.65-3.38,3.2-8.12.03-1.45,1.74-2.01,3.53-.91,1.26-4.62,3.07-3.49-6-6.2-1.18-2.32,1.08-1.56,1.99-2.02,9.02-5.08,7.22-10.65,1.74-5.76,2.95-2.82-4.33-3.4-.86-4.1.04.56-4.45-2.16-3.76,17.14-10.24-.62-6.99-.04-.57-1.29-1.88-2.52-3.74,5.66-2.61-1.72-3.14,3.22-6.31-4.51-2.75-6.71-11.36-1.56-2.67-3.2-1.09,1.13-3.86,4.81-1.76,4.73-3.04,2.42-8.05-1.52-4.51,3.36-3.73.22-3.36-.03-.9-.64-4.87-.43-.64.55-.82L25.33,0l.64.34h0Z"/>
</svg>